<svg xmlns="http://www.w3.org/2000/svg" viewBox="0 0 64 64" width="64" height="64">
  <defs>
    <linearGradient id="bg" x1="0%" y1="0%" x2="100%" y2="100%">
      <stop offset="0%" stop-color="#050a16" />
      <stop offset="100%" stop-color="#0c1f3c" />
    </linearGradient>
    <linearGradient id="bfill" x1="0%" y1="0%" x2="100%" y2="100%">
      <stop offset="0%" stop-color="#3a9dff" />
      <stop offset="100%" stop-color="#1b6ec2" />
    </linearGradient>
  </defs>
  <rect width="64" height="64" rx="12" fill="url(#bg)" />
  <rect x="8" y="8" width="48" height="48" rx="12" fill="#030814" opacity="0.65" />
  <path d="M18 12h9c9 0 15 4.7 15 11.4c0 4.7-2.7 8-7.2 9.8c5.8 1.4 9.7 5.8 9.7 12c0 8.5-6.6 13.8-16.3 13.8H18z" fill="url(#bfill)" />
  <path d="M18 12h3v40h-3z" fill="#7bc7ff" opacity="0.7" />
  <path d="M27 18h9.5c4.3 0 7.3 2.3 7.3 5.8s-2.7 6-7.6 6H27z" fill="#050a16" />
  <path d="M27 36h10.2c5.1 0 8.6 2.7 8.6 7.2s-3.7 8-9.2 8H27z" fill="#050a16" />
  <path d="M32 26l12 12" stroke="#5fe4ff" stroke-width="3" stroke-linecap="round" />
  <rect x="13" y="13" width="6" height="6" rx="1" fill="#6fe8ff" />
  <rect x="13" y="45" width="6" height="6" rx="1" fill="#6fe8ff" />
  <rect x="43" y="17" width="5" height="5" rx="1" fill="#6fe8ff" />
  <rect x="44" y="38" width="5" height="5" rx="1" fill="#6fe8ff" />
  <rect x="10" y="10" width="44" height="44" rx="10" fill="none" stroke="#152a4d" stroke-width="1.5" />
</svg>
